<?xml version="1.0" standalone="no"?>
<!DOCTYPE svg PUBLIC "-//W3C//DTD SVG 20010904//EN"
 "http://www.w3.org/TR/2001/REC-SVG-20010904/DTD/svg10.dtd">
<svg version="1.0" xmlns="http://www.w3.org/2000/svg"
 width="1280.000000pt" height="1268.000000pt" viewBox="0 0 1280.000000 1268.000000"
 preserveAspectRatio="xMidYMid meet">
<metadata>
Created by potrace 1.15, written by Peter Selinger 2001-2017
</metadata>
<g transform="translate(0.000000,1268.000000) scale(0.100000,-0.100000)"
fill="#000000" stroke="none">
<path d="M6036 12670 c-462 -29 -946 -94 -1261 -170 -226 -54 -534 -159 -575
-195 -8 -7 -53 -26 -100 -41 -143 -46 -273 -105 -569 -258 -551 -285 -896
-515 -1331 -885 -180 -154 -516 -491 -674 -676 -851 -999 -1361 -2187 -1491
-3472 -138 -1362 176 -2749 881 -3895 30 -48 68 -117 85 -153 34 -71 114 -188
193 -280 29 -33 94 -114 146 -180 313 -401 702 -791 1100 -1101 824 -643 1778
-1071 2805 -1258 705 -128 1433 -138 2135 -30 605 94 1004 196 1315 336 61 27
169 75 240 106 636 276 1238 659 1745 1111 161 143 501 483 607 606 212 245
413 532 646 920 78 131 300 568 362 715 264 626 414 1226 482 1925 24 251 24
827 0 1085 -77 819 -277 1530 -632 2245 -552 1114 -1391 2016 -2480 2665 -178
107 -536 288 -730 370 -82 34 -176 76 -207 91 -133 67 -363 150 -573 207 -331
90 -665 145 -1215 197 -188 18 -712 27 -904 15z m983 -54 c90 -8 166 -17 169
-20 3 -4 -6 -6 -20 -6 -37 0 -195 -53 -270 -91 -112 -57 -240 -142 -353 -235
-46 -38 -53 -40 -85 -32 -19 6 -51 8 -71 5 -35 -5 -38 -2 -115 91 -96 116
-184 191 -283 240 -65 32 -83 36 -145 36 -117 -1 -205 -58 -292 -188 -32 -49
-41 -56 -63 -52 -105 20 -280 31 -501 30 -228 0 -309 -6 -450 -30 -72 -13 -19
7 126 47 429 118 878 194 1289 219 211 12 866 4 1064 -14z m-1035 -76 c78 -37
149 -97 242 -201 99 -112 101 -116 64 -124 -21 -5 -90 8 -218 39 -188 46 -443
96 -488 96 -13 0 -24 5 -24 11 0 20 59 96 111 143 91 82 193 94 313 36z m1424
15 c70 -17 168 -62 222 -103 45 -34 130 -113 130 -121 0 -3 -55 -4 -122 -2
-136 4 -430 -12 -638 -35 -156 -16 -420 -54 -435 -61 -5 -2 8 12 30 31 69 63
226 163 335 215 177 85 335 110 478 76z m287 -40 c373 -75 924 -243 1114 -340
48 -24 71 -45 34 -30 -46 17 -199 58 -299 80 -199 44 -372 67 -657 90 -78 7
-78 7 -124 57 -55 58 -155 135 -200 155 -35 14 -45 28 -15 19 9 -3 76 -17 147
-31z m-2389 -160 c228 -21 210 -9 165 -108 -21 -45 -42 -94 -48 -108 -10 -22
-19 -27 -70 -33 -530 -61 -1271 -232 -1732 -399 -66 -24 -121 -41 -121 -37 0
4 53 61 118 127 181 185 518 444 617 476 96 30 291 66 475 86 125 14 427 12
596 -4z m439 -61 c77 -14 207 -41 290 -61 177 -42 174 -47 -42 -63 -81 -6
-235 -20 -342 -30 -107 -11 -196 -18 -198 -17 -4 4 42 118 68 170 18 34 23 37
52 32 18 -3 95 -17 172 -31z m2008 0 c42 -6 49 -11 85 -63 58 -84 114 -191 99
-191 -6 0 -66 9 -132 20 -274 45 -674 89 -1003 110 -96 7 -190 17 -209 24 -33
11 -28 13 118 34 194 28 409 51 564 61 156 10 419 13 478 5z m268 -20 c303
-28 575 -84 842 -171 128 -41 143 -49 205 -103 120 -104 332 -333 320 -346 -2
-2 -53 15 -113 37 -296 109 -733 229 -1099 303 -98 20 -183 39 -188 42 -5 3
-24 36 -42 72 -19 37 -50 91 -70 121 -20 29 -36 55 -36 57 0 6 -2 6 181 -12z
m-3956 -73 c-6 -4 -57 -43 -115 -86 -187 -140 -352 -290 -455 -415 -50 -60
-60 -68 -142 -99 -48 -19 -137 -56 -198 -83 -60 -28 -125 -57 -144 -65 l-34
-15 44 54 c133 160 333 343 500 456 80 55 226 126 402 197 59 24 115 49 125
54 21 13 29 14 17 2z m2205 -46 c0 -3 -50 -30 -112 -61 -202 -101 -513 -281
-732 -422 -54 -34 -101 -61 -104 -58 -5 5 64 325 72 333 6 7 345 102 531 150
178 45 345 73 345 58z m560 -66 c381 -119 737 -251 1086 -400 l211 -91 25 -91
c14 -51 24 -95 22 -98 -2 -3 -29 -2 -61 2 -95 13 -458 48 -606 58 l-137 9
-133 104 c-210 164 -317 242 -542 393 -115 78 -219 146 -229 152 -11 6 -16 15
-11 23 5 9 31 10 99 5 69 -6 135 -21 276 -66z m-456 55 c12 -5 -1 -25 -58 -93
-100 -118 -197 -251 -310 -424 -111 -170 -58 -147 -406 -172 -124 -9 -245 -19
-269 -22 l-43 -6 5 29 c3 16 9 47 12 69 7 45 -7 34 272 206 198 124 380 227
578 330 167 87 188 95 219 83z m-479 -21 c-205 -59 -478 -133 -481 -130 -2 1
3 23 10 47 16 53 3 50 266 74 96 10 184 18 195 20 50 8 55 3 10 -11z m1295
-14 c207 -20 497 -58 670 -87 l105 -17 40 -81 c38 -75 109 -273 102 -280 -2
-2 -62 21 -133 52 -311 135 -730 293 -1034 389 -80 26 -149 48 -155 51 -19 8
209 -7 405 -27z m-740 -76 c26 -71 171 -526 167 -528 -3 -3 -661 -23 -664 -21
-1 1 38 64 87 140 103 156 204 296 298 408 74 89 79 89 112 1z m605 -348 c105
-79 206 -157 225 -174 l35 -31 -125 5 c-69 3 -218 8 -332 11 l-208 6 -35 117
c-31 100 -138 430 -153 469 -7 21 380 -243 593 -403z m1990 387 c-3 -3 -11 0
-18 7 -9 10 -8 11 6 5 10 -3 15 -9 12 -12z m-3645 0 c0 -5 -7 -28 -15 -53
l-15 -44 -218 -72 c-626 -205 -1243 -475 -1737 -759 -64 -36 -119 -63 -123
-59 -4 4 -7 44 -6 89 2 122 49 254 140 391 35 52 36 53 162 98 459 164 936
285 1447 366 353 56 365 57 365 43z m3870 -136 c237 -119 420 -239 609 -402
101 -87 227 -211 206 -202 -5 2 -93 45 -195 96 -102 50 -242 115 -312 145
l-127 53 -52 69 c-29 39 -107 125 -173 193 -65 67 -116 122 -111 122 4 0 74
-33 155 -74z m-1075 24 c318 -63 749 -181 1045 -288 189 -68 189 -68 231 -142
58 -100 91 -209 97 -319 4 -87 3 -93 -14 -88 -149 45 -425 113 -633 157 l-145
30 -312 156 -313 156 -32 97 c-27 81 -46 128 -106 269 -3 7 0 10 8 8 8 -3 86
-19 174 -36z m-2846 -65 c-6 -21 -23 -101 -39 -177 -15 -76 -29 -140 -31 -142
-27 -22 -254 -176 -260 -176 -5 0 -93 -11 -196 -25 -406 -55 -915 -151 -1260
-238 -95 -24 -173 -43 -173 -41 0 2 179 100 346 189 211 113 636 301 959 425
176 67 657 232 662 226 1 -1 -2 -19 -8 -41z m-1984 -21 c-198 -169 -298 -269
-405 -407 -38 -49 -60 -65 -150 -112 -205 -105 -454 -259 -650 -404 -200 -147
-320 -250 -510 -439 -102 -102 -176 -174 -165 -161 425 506 955 971 1495 1310
95 59 402 238 410 238 3 0 -8 -11 -25 -25z m6435 -202 c404 -254 749 -527
1090 -862 74 -73 115 -116 90 -96 -25 20 -92 75 -150 121 -147 120 -310 235
-484 341 -135 83 -164 107 -300 241 -142 141 -305 280 -389 332 -40 25 -51 39
-14 20 12 -7 83 -50 157 -97z m-6429 -144 c-81 -136 -115 -246 -114 -379 l0
-97 -41 -12 c-138 -39 -501 -156 -583 -187 -14 -5 116 244 177 342 121 191
116 186 262 253 129 60 316 139 330 141 4 1 -10 -27 -31 -61z m5116 -106 c95
-47 171 -87 169 -89 -1 -2 -27 2 -57 7 -30 6 -128 21 -218 35 -90 13 -165 26
-168 29 -5 5 -43 146 -43 162 0 12 65 -17 317 -144z m1128 103 c70 -30 222
-103 337 -162 179 -91 215 -113 255 -157 64 -71 171 -216 241 -327 96 -152 97
-145 -15 -93 -187 89 -421 182 -629 253 l-209 72 3 67 c5 94 -19 197 -72 307
-25 52 -43 95 -42 95 2 0 61 -25 131 -55z m-4345 -39 c-4 -26 -13 -51 -19 -56
-13 -7 -142 -22 -148 -16 -2 1 36 30 85 63 48 34 88 60 88 60 1 -1 -2 -24 -6
-51z m1379 -83 c133 -455 343 -1304 326 -1321 -24 -24 -903 -26 -1200 -2 -172
13 -459 42 -463 45 -11 10 174 461 292 712 122 260 307 600 332 610 18 7 333
19 536 21 l157 2 20 -67z m570 51 l143 -7 130 -110 c72 -60 192 -167 267 -236
152 -141 511 -499 548 -547 19 -25 26 -52 33 -125 6 -52 12 -106 15 -121 4
-26 3 -27 -123 -57 -323 -77 -746 -140 -1123 -167 l-95 -6 -33 148 c-81 367
-277 1122 -319 1233 -5 14 139 13 557 -5z m-1332 -11 c-125 -213 -280 -518
-382 -748 -67 -152 -192 -458 -214 -527 -13 -40 -22 -43 -79 -32 l-30 6 4 97
c10 195 35 579 45 681 20 210 51 465 58 472 6 7 223 29 461 47 63 4 121 9 128
10 7 0 11 -2 9 -6z m1778 -18 c197 -15 445 -40 496 -51 25 -5 28 -12 58 -152
46 -221 100 -549 101 -617 0 -13 -70 52 -217 201 -226 228 -366 360 -563 529
-63 54 -116 101 -118 105 -1 4 8 6 20 4 13 -2 113 -11 223 -19z m-2429 -183
c-30 -224 -57 -554 -76 -911 -5 -101 -10 -184 -12 -186 -2 -1 -76 11 -165 26
-331 55 -636 133 -887 225 l-130 47 170 166 c245 240 516 473 787 676 l118 88
102 11 c122 13 115 24 93 -142z m3204 93 c293 -45 312 -49 386 -90 248 -137
624 -371 624 -388 0 -21 -175 -183 -255 -236 -145 -95 -369 -197 -582 -266
l-72 -22 -90 103 -91 103 -20 152 c-25 186 -63 406 -95 557 -14 62 -25 115
-25 118 0 2 12 1 28 -1 15 -3 101 -16 192 -30z m-3557 -42 c-268 -203 -515
-417 -765 -662 l-178 -174 -106 52 c-230 111 -413 265 -486 406 -32 63 -54
125 -45 125 2 0 100 25 218 54 369 94 754 170 1167 231 313 46 301 48 195 -32z
m-2029 30 c-79 -120 -145 -234 -204 -351 l-69 -138 -133 -53 c-414 -167 -782
-371 -1005 -559 -29 -24 -53 -40 -53 -37 0 15 205 237 325 354 252 243 530
455 835 637 142 84 302 173 314 173 4 1 0 -11 -10 -26z m6206 -104 c141 -31
317 -76 433 -110 65 -19 67 -21 61 -47 -8 -35 -71 -172 -80 -172 -3 0 -65 38
-138 84 -129 82 -287 178 -416 250 -75 43 -80 43 140 -5z m1267 -65 c526 -332
931 -701 1244 -1134 93 -128 127 -183 79 -125 -228 272 -601 566 -970 766 -93
50 -100 57 -136 119 -61 103 -186 290 -237 353 -26 31 -45 57 -42 57 2 0 31
-16 62 -36z m-352 -206 c158 -60 343 -139 501 -214 l82 -39 45 -85 c90 -169
180 -388 256 -622 48 -149 111 -388 102 -387 -3 0 -37 36 -76 80 -202 230
-616 610 -932 857 -128 99 -401 298 -441 321 -11 6 -8 19 16 62 16 30 37 77
46 105 l17 52 112 -35 c62 -19 184 -62 272 -95z m-6662 -33 c79 -164 272 -328
526 -448 46 -21 80 -42 75 -46 -15 -10 -204 -219 -300 -331 -386 -448 -768
-1014 -1044 -1546 l-63 -122 -86 -28 c-47 -15 -112 -38 -143 -51 -32 -13 -62
-23 -68 -23 -13 0 -13 446 0 673 33 537 117 1033 242 1414 23 70 25 73 108
136 209 156 364 264 565 389 136 85 140 87 149 65 5 -12 23 -49 39 -82z m-190
51 c-77 -44 -367 -241 -488 -331 -66 -50 -125 -93 -132 -98 -15 -10 91 252
109 268 17 15 119 53 278 104 69 22 152 49 185 60 82 27 98 26 48 -3z m6469
-198 c274 -191 557 -415 806 -641 136 -123 430 -419 525 -529 56 -64 58 -69
77 -165 27 -141 57 -354 75 -538 17 -169 33 -775 21 -775 -4 0 -38 13 -74 29
-237 104 -728 261 -1162 371 l-125 32 -50 96 c-264 509 -639 1073 -1028 1545
-49 59 -88 110 -86 112 2 2 62 24 132 50 252 91 417 173 562 280 70 52 205
181 205 197 0 17 23 5 122 -64z m-7035 10 c-3 -7 -20 -51 -39 -98 -19 -47 -43
-107 -53 -133 -15 -41 -33 -61 -123 -135 -496 -406 -975 -933 -1287 -1415 -27
-42 -53 -77 -56 -77 -17 0 -50 214 -50 327 0 270 35 369 240 671 185 273 671
594 1260 832 107 43 115 45 108 28z m8408 -324 c347 -229 634 -506 835 -805
66 -99 79 -125 88 -180 49 -291 -3 -563 -156 -811 -19 -32 -36 -58 -38 -58 -1
0 -36 53 -76 118 -142 228 -340 502 -517 717 -36 44 -72 87 -79 96 -7 9 -32
96 -57 194 -74 296 -177 579 -296 818 -32 65 -59 120 -59 122 0 9 228 -126
355 -211z m-2484 -96 l30 -37 -38 -10 c-98 -26 -93 -26 -93 5 0 16 -3 61 -6
99 l-6 70 41 -45 c23 -25 55 -62 72 -82z m-6071 16 c-27 -76 -103 -387 -130
-529 -40 -210 -65 -409 -96 -760 -4 -44 -10 -237 -13 -429 l-6 -350 -145 -58
c-80 -32 -187 -77 -238 -100 l-93 -41 -62 43 c-266 186 -465 407 -573 635
l-45 94 72 108 c269 403 637 829 999 1157 155 141 341 298 347 293 2 -2 -6
-30 -17 -63z m1607 15 c79 -34 302 -106 430 -139 199 -52 320 -77 637 -131
l69 -12 -7 -191 -7 -191 -60 -195 c-33 -107 -85 -287 -115 -400 -31 -113 -59
-216 -63 -230 -8 -27 -28 -31 -306 -60 -162 -17 -277 -31 -472 -60 -119 -17
-326 -51 -378 -61 -220 -42 -421 -82 -475 -95 -36 -8 -83 -19 -105 -24 -144
-32 -549 -142 -592 -160 -13 -5 -23 -7 -23 -3 0 10 116 225 203 378 306 534
687 1055 1085 1483 57 61 110 112 117 112 8 0 35 -9 62 -21z m4644 -247 c327
-399 670 -908 919 -1362 136 -250 123 -221 98 -215 -322 75 -761 158 -1095
206 l-153 22 0 371 c0 366 -8 606 -31 924 -6 90 -9 165 -6 168 14 14 133 40
144 31 7 -5 63 -71 124 -145z m-301 91 c0 -10 7 -108 16 -218 9 -120 17 -403
21 -707 5 -429 4 -508 -8 -508 -8 0 -88 9 -179 20 -211 26 -668 67 -833 76
-118 6 -130 9 -137 28 -5 12 -39 185 -75 386 -36 201 -83 448 -105 550 -21
102 -38 186 -37 186 1 1 65 7 142 13 402 34 836 101 1125 175 73 18 70 18 70
-1z m-3102 -138 c2 -2 -16 -62 -39 -134 -23 -72 -43 -130 -45 -128 -1 1 0 64
3 139 l6 136 36 -5 c20 -3 37 -7 39 -8z m247 -26 c267 -27 451 -34 953 -34
464 0 533 -2 537 -15 13 -45 113 -556 159 -814 l53 -299 -196 9 c-442 20
-1716 5 -1818 -22 l-22 -6 -1 417 0 417 62 185 63 185 60 -6 c33 -4 101 -11
150 -17z m-4590 -551 c-169 -326 -284 -637 -369 -1003 -44 -190 -86 -465 -101
-655 -5 -58 -19 -122 -45 -200 -72 -218 -138 -464 -180 -675 -16 -78 -34 -134
-64 -195 -24 -47 -57 -123 -75 -170 -50 -131 -51 -132 -46 -60 2 36 7 117 10
180 48 925 351 1920 842 2760 123 209 131 214 28 18z m4227 -301 l3 -327 -40
0 c-22 0 -69 -5 -105 -10 -35 -5 -66 -7 -68 -5 -5 5 63 265 135 510 30 105 58
201 62 215 9 36 10 -1 13 -383z m-4213 192 c-16 -120 -6 -333 21 -434 12 -44
22 -85 23 -90 0 -6 -27 -55 -60 -110 -136 -226 -302 -558 -390 -780 -20 -52
-39 -92 -41 -90 -6 6 17 194 43 353 49 288 147 636 254 897 43 105 154 344
159 340 1 -1 -3 -40 -9 -86z m10198 -51 c113 -141 262 -341 350 -474 94 -140
193 -302 193 -317 0 -21 -141 -178 -231 -256 -114 -99 -286 -224 -299 -216 -6
4 -10 88 -10 228 0 253 -12 463 -40 718 -18 159 -52 375 -66 422 -3 9 -3 17
-1 17 2 0 49 -55 104 -122z m864 -58 c189 -421 306 -857 364 -1355 12 -112 34
-497 35 -619 l0 -38 -82 78 -83 77 -41 116 c-92 261 -251 611 -397 874 l-77
138 29 42 c48 70 109 198 139 292 42 128 55 229 51 387 -2 75 -1 134 3 130 4
-4 30 -59 59 -122z m149 -223 c364 -747 563 -1512 620 -2376 10 -154 8 -206
-5 -114 -26 179 -158 450 -301 620 l-44 51 0 195 c0 592 -129 1252 -340 1739
-21 48 -36 88 -34 88 3 0 50 -91 104 -203z m-5265 -187 c154 -6 293 -14 310
-18 30 -8 30 -9 52 -148 37 -230 110 -743 142 -999 51 -403 73 -597 69 -601
-7 -6 -492 -25 -823 -31 -367 -7 -975 13 -1321 43 l-61 5 -12 207 c-34 597
-50 1012 -52 1297 l-1 220 124 8 c412 25 1113 33 1573 17z m685 -40 c241 -19
463 -41 615 -60 44 -5 111 -13 148 -17 46 -4 71 -11 74 -20 14 -36 -19 -769
-57 -1263 -11 -140 -20 -260 -20 -266 0 -12 -68 -23 -245 -43 -273 -30 -496
-51 -552 -51 -48 0 -41 -24 -73 255 -47 418 -175 1331 -205 1469 -4 21 3 21
315 -4z m-2410 -204 c0 -228 21 -767 45 -1181 21 -349 23 -322 -22 -318 -144
12 -386 38 -506 55 -77 10 -78 11 -73 37 3 14 26 148 51 296 44 264 112 625
154 815 45 202 114 476 123 487 6 7 42 14 86 16 43 1 92 4 110 5 l32 2 0 -214z
m-4126 129 c91 -209 317 -460 579 -645 26 -18 47 -35 47 -37 0 -1 -45 -25 -99
-53 -396 -198 -779 -470 -1012 -718 l-76 -81 -6 92 c-3 51 -2 171 2 267 l8
175 56 140 c73 185 149 353 239 527 79 152 219 398 228 398 3 0 18 -29 34 -65z
m3830 -67 c-93 -373 -187 -841 -264 -1316 -15 -95 -29 -175 -31 -177 -2 -2
-24 0 -49 5 -25 4 -83 13 -130 19 -47 7 -111 16 -142 21 -32 6 -85 15 -118 20
-33 6 -86 15 -117 20 -61 11 -393 77 -453 90 -19 4 -57 13 -85 19 -336 71
-891 247 -1166 370 l-47 21 60 138 c107 247 214 459 234 465 227 67 458 129
624 168 234 55 606 127 815 158 279 42 518 73 700 91 61 6 124 12 140 14 17 2
37 4 46 5 13 1 11 -19 -17 -131z m3706 32 c30 -5 91 -14 135 -20 44 -6 100
-15 125 -20 25 -5 79 -14 120 -21 71 -11 485 -92 560 -109 19 -4 58 -13 85
-19 80 -17 126 -29 130 -33 38 -41 417 -900 403 -913 -4 -4 -200 -67 -295 -95
-88 -25 -408 -107 -478 -122 -27 -5 -66 -14 -85 -18 -63 -14 -244 -51 -295
-60 -137 -24 -349 -59 -425 -70 -47 -7 -107 -16 -134 -21 -27 -5 -51 -7 -54
-5 -2 3 5 128 17 278 36 465 61 950 61 1195 l0 72 38 -5 c20 -3 62 -9 92 -14z
m3324 -555 c102 -205 189 -405 255 -583 22 -62 41 -114 41 -117 0 -2 -44 30
-97 72 -107 83 -300 212 -432 287 -67 38 -400 207 -454 230 -8 3 -7 8 4 15
128 82 335 263 428 374 l65 77 48 -82 c26 -46 90 -168 142 -273z m-1934 276
c234 -60 475 -132 670 -199 349 -120 475 -172 475 -198 0 -48 -502 -296 -837
-414 l-107 -37 -62 156 c-78 195 -160 381 -255 580 -41 85 -74 156 -74 158 0
2 8 2 18 -1 9 -3 87 -23 172 -45z m-7470 -85 c0 -2 -37 -84 -83 -183 -46 -98
-99 -214 -117 -258 -42 -98 -50 -109 -50 -64 -1 18 -5 79 -10 134 -5 55 -10
141 -11 190 l-2 90 49 19 c83 31 209 75 217 76 4 0 7 -2 7 -4z m-297 -240 c4
-74 10 -173 13 -221 l7 -86 -95 44 c-96 45 -259 132 -343 185 l-46 29 93 41
c140 63 331 140 349 141 14 1 17 -19 22 -133z m-406 -120 c49 -29 166 -92 261
-140 95 -47 172 -88 172 -90 0 -2 -29 -79 -64 -172 -342 -908 -525 -1863 -527
-2761 0 -184 -3 -243 -12 -243 -21 0 -397 191 -509 259 l-106 64 -51 126
c-270 675 -426 1326 -472 1979 l-10 152 63 71 c148 166 431 395 678 548 119
74 464 260 482 261 4 0 47 -24 95 -54z m9623 -79 c310 -155 562 -316 751 -478
l55 -48 47 -158 c26 -87 61 -214 78 -283 l31 -125 -16 -145 c-43 -375 -131
-786 -251 -1170 -52 -166 -138 -405 -152 -422 -17 -20 -173 -124 -302 -202
-133 -81 -524 -276 -552 -276 -5 0 -46 22 -91 48 -46 27 -124 71 -174 97 l-91
49 -11 180 c-7 100 -19 255 -28 346 l-16 165 50 165 c226 742 356 1452 392
2145 6 110 13 206 15 213 2 6 12 12 22 12 10 0 119 -51 243 -113z m-305 -39
c-39 -727 -151 -1376 -361 -2094 -26 -87 -49 -169 -51 -181 -7 -29 -23 -30
-23 -1 0 42 -52 355 -90 543 -88 436 -214 884 -368 1311 l-40 111 56 17 c186
58 566 227 742 330 69 41 129 74 133 75 4 1 5 -50 2 -111z m-8660 -203 c524
-208 1208 -376 1970 -485 83 -12 151 -22 151 -23 1 -1 -11 -90 -27 -197 -53
-365 -103 -826 -139 -1279 -11 -141 -24 -257 -30 -261 -6 -3 -63 -14 -128 -24
-412 -60 -1005 -191 -1317 -290 -44 -14 -83 -22 -86 -18 -7 8 -121 351 -168
507 -150 498 -275 1059 -356 1589 -26 174 -65 497 -65 541 l0 25 38 -19 c20
-10 91 -40 157 -66z m-215 -30 c0 -53 47 -407 81 -615 96 -587 264 -1257 458
-1832 l39 -116 -136 -47 c-325 -111 -666 -265 -900 -406 -56 -34 -106 -59
-109 -55 -12 12 -4 520 12 733 51 684 187 1346 409 1999 92 271 130 374 139
374 4 0 7 -16 7 -35z m-1792 -239 l0 -224 -57 -75 c-32 -41 -73 -98 -91 -126
-18 -29 -34 -50 -36 -49 -2 2 1 22 6 43 5 22 21 92 36 155 14 63 49 194 76
290 28 96 53 183 55 193 3 9 7 17 8 17 2 0 3 -101 3 -224z m9782 -63 c200
-578 328 -1101 415 -1693 l22 -155 -39 -115 c-38 -110 -159 -442 -163 -448 -1
-1 -35 12 -76 29 -82 34 -455 160 -546 185 -32 8 -82 22 -110 30 -323 88 -668
161 -1033 219 -52 8 -122 19 -155 24 -33 6 -97 15 -142 20 -204 26 -243 34
-243 46 0 7 18 135 40 286 55 377 104 774 135 1089 14 146 28 275 31 288 3 18
11 22 41 22 19 0 63 5 97 10 33 6 120 19 191 31 473 74 931 179 1309 298 55
17 102 34 105 36 2 3 14 5 27 5 19 0 29 -21 94 -207z m2110 -55 l60 -63 -1
-100 c0 -55 -4 -120 -8 -145 l-7 -45 -21 86 c-13 47 -38 138 -58 202 -19 64
-35 119 -35 122 0 12 13 1 70 -57z m153 -180 c116 -152 210 -347 246 -513 45
-207 33 -386 -38 -605 -24 -72 -139 -310 -151 -310 -4 0 -10 82 -13 183 -9
262 -40 519 -98 814 -28 143 -29 158 -19 260 5 59 10 138 10 176 0 37 2 67 4
67 2 0 29 -33 59 -72z m-7643 28 c118 -13 252 -27 298 -31 48 -4 85 -12 87
-19 2 -6 9 -83 15 -171 17 -254 48 -621 85 -1004 19 -194 35 -359 35 -365 0
-8 -76 -19 -252 -35 -139 -12 -352 -35 -473 -50 -121 -16 -221 -27 -222 -26
-4 3 35 496 57 709 34 338 112 963 125 1004 5 15 -7 16 245 -12z m3473 -108
c-65 -658 -185 -1555 -209 -1551 -19 3 -241 24 -353 33 -62 5 -114 10 -116 12
-2 2 -10 107 -19 233 -20 280 -69 814 -100 1105 -13 118 -23 216 -22 217 1 0
71 6 156 12 159 12 251 21 425 41 55 7 132 16 170 20 39 4 72 8 76 9 3 0 -1
-59 -8 -131z m-7863 -38 c40 -489 128 -936 277 -1410 53 -169 158 -463 202
-564 12 -27 20 -53 19 -58 -5 -15 -232 151 -345 252 -165 145 -300 315 -403
503 l-43 79 6 261 c5 258 21 450 56 677 16 108 21 121 65 190 54 84 148 211
152 207 2 -1 8 -63 14 -137z m5175 78 c232 -16 1470 -16 1685 -1 80 6 148 8
151 4 18 -17 150 -1523 135 -1538 -3 -3 -83 -1 -178 5 -534 36 -1321 40 -1818
9 -113 -7 -206 -13 -207 -13 -8 4 -133 1431 -133 1525 l0 34 88 -6 c48 -4 173
-12 277 -19z m-5445 -400 c-23 -147 -40 -356 -47 -563 -6 -199 -8 -217 -20
-187 -34 84 -73 294 -73 396 0 33 12 90 31 148 32 100 109 281 116 275 2 -3
-1 -34 -7 -69z m12269 -273 c24 -166 47 -413 56 -617 l7 -147 -63 -83 c-75
-99 -278 -304 -368 -371 -35 -26 -65 -46 -67 -44 -2 2 12 48 32 103 146 409
267 899 315 1279 12 94 24 177 27 185 6 18 33 -116 61 -305z m327 -342 c-32
-762 -207 -1528 -506 -2213 -89 -204 -150 -333 -155 -328 -3 2 15 52 40 111
220 533 349 1141 374 1770 l10 227 36 59 c87 144 164 338 187 470 7 39 14 71
17 71 2 0 1 -75 -3 -167z m-12667 -211 c14 -36 21 -75 21 -125 1 -249 61 -710
135 -1021 14 -60 24 -110 22 -112 -4 -4 -52 178 -86 326 -76 330 -130 705
-145 995 l-6 110 19 -60 c10 -33 28 -84 40 -113z m197 -353 c125 -173 308
-344 554 -518 l122 -86 49 -115 c27 -63 95 -207 150 -319 l101 -203 -45 -47
c-170 -176 -295 -434 -328 -678 -12 -91 -7 -265 10 -338 6 -22 8 -41 7 -43
-12 -12 -237 419 -326 623 -195 448 -321 898 -394 1405 -16 106 -46 450 -46
518 0 36 1 35 44 -41 24 -42 70 -114 102 -158z m12193 -119 c-26 -708 -208
-1437 -513 -2055 -76 -153 -84 -165 -78 -120 14 100 7 326 -12 415 -36 173
-128 365 -240 506 l-61 76 81 163 c85 173 169 364 257 582 l53 132 89 67 c102
76 319 290 385 377 23 32 43 56 44 55 1 -2 -1 -91 -5 -198z m-5484 160 c313
-13 579 -30 586 -38 13 -13 46 -773 55 -1273 l7 -355 -184 -13 c-101 -6 -258
-16 -349 -22 -235 -14 -1056 -23 -1310 -14 l-216 7 -28 197 c-60 426 -176
1388 -176 1461 l0 26 273 13 c149 7 288 13 307 15 95 7 833 4 1035 -4z m-1622
-287 c33 -304 116 -965 152 -1211 14 -96 25 -182 25 -192 0 -15 -8 -17 -62
-14 -35 2 -146 9 -248 14 -284 16 -803 61 -869 76 l-24 5 6 482 c7 516 29 986
46 997 23 14 736 92 901 98 l46 2 27 -257z m2508 227 c111 -11 204 -22 206
-24 19 -19 -279 -1525 -310 -1563 -5 -7 -31 -13 -57 -13 l-47 0 -7 348 c-6
306 -21 699 -42 1135 l-7 137 30 0 c17 0 122 -9 234 -20z m475 -55 c626 -84
1206 -211 1684 -368 172 -56 380 -135 380 -143 0 -19 -244 -588 -260 -607 -16
-18 -475 -132 -795 -196 -467 -94 -934 -162 -1487 -217 l-66 -6 23 100 c72
302 188 887 250 1252 37 223 33 210 60 210 12 0 108 -11 211 -25z m2328 -468
l7 -128 -38 17 c-21 9 -72 30 -113 47 -41 17 -76 31 -77 32 -1 0 18 54 43 120
25 66 63 172 85 235 22 63 42 122 46 130 7 17 37 -265 47 -453z m-6329 376
c-17 -217 -27 -503 -32 -931 l-6 -472 -31 5 c-17 3 -87 12 -156 20 -237 30
-826 128 -902 151 -35 10 -413 943 -391 965 4 4 71 26 148 48 317 91 720 181
1071 240 99 16 204 34 234 39 30 5 59 10 63 11 5 0 6 -34 2 -76z m-1550 -290
c4 -10 24 -65 45 -123 59 -163 160 -417 244 -614 42 -98 75 -180 73 -183 -5
-5 -229 45 -442 98 -200 50 -555 155 -700 207 -111 40 -312 119 -328 129 -19
11 229 153 443 253 178 83 602 246 646 249 7 1 15 -7 19 -16z m9055 -148 c-84
-206 -282 -637 -305 -663 -1 -1 -26 22 -56 50 -107 104 -252 221 -353 286
l-39 24 214 107 c216 108 399 212 519 295 36 25 68 45 72 45 4 1 -20 -64 -52
-144z m-1285 -43 l110 -48 7 -49 c3 -28 7 -103 7 -167 l1 -116 -152 -51 c-149
-49 -348 -110 -348 -106 0 1 25 57 56 126 31 68 85 196 121 284 72 177 71 175
81 175 4 0 57 -22 117 -48z m-9445 -52 c63 -38 299 -156 406 -205 41 -19 74
-36 74 -39 0 -2 -42 -36 -92 -74 -51 -39 -123 -97 -160 -131 -36 -34 -69 -61
-72 -61 -12 0 -276 549 -276 574 0 4 15 -1 33 -12 17 -11 57 -35 87 -52z
m9694 -69 c167 -89 220 -123 205 -131 -24 -14 -291 -111 -294 -108 -7 8 -16
288 -9 288 4 0 48 -22 98 -49z m456 -292 c41 -31 117 -96 168 -144 l92 -87
-47 -86 c-213 -394 -498 -818 -794 -1183 -156 -192 -204 -248 -212 -248 -5 -1
-6 3 -3 8 10 16 85 319 115 466 38 186 75 433 96 630 14 141 34 495 35 613 0
35 4 52 13 52 6 1 84 29 172 64 l160 64 65 -46 c36 -25 99 -71 140 -103z
m-9508 55 c322 -132 786 -271 1253 -374 172 -38 175 -39 175 -53 0 -24 324
-663 428 -842 186 -324 449 -722 614 -932 6 -8 -15 -19 -74 -38 -317 -105
-591 -245 -748 -384 -32 -28 -62 -51 -65 -51 -4 0 -55 39 -113 87 -523 426
-1004 940 -1407 1503 l-89 124 -27 166 c-57 350 -98 840 -69 840 5 0 60 -21
122 -46z m-158 -111 c13 -228 51 -557 85 -738 9 -47 9 -48 -8 -27 -42 56 -227
351 -305 487 l-86 150 62 59 c62 57 227 186 239 186 4 0 9 -53 13 -117z m9086
0 c0 -106 -20 -436 -35 -583 -41 -390 -110 -745 -220 -1124 -13 -44 -34 -74
-114 -162 -243 -270 -814 -778 -840 -748 -4 5 -29 39 -55 76 -82 118 -229 232
-433 334 l-122 61 66 79 c459 549 792 1068 1154 1795 l82 166 116 34 c64 18
177 54 251 80 74 26 138 47 143 48 4 1 7 -25 7 -56z m-636 -275 c-312 -631
-616 -1118 -997 -1598 -148 -185 -211 -259 -223 -259 -6 -1 -57 17 -115 38
-215 81 -578 166 -914 215 l-160 23 3 99 c1 54 7 241 11 414 l9 315 47 180
c26 99 55 212 64 250 l16 70 100 11 c55 7 188 22 295 34 631 71 1379 208 1820
333 47 14 93 25 102 26 14 1 1 -32 -58 -151z m-8753 69 c35 -68 225 -381 320
-527 87 -133 88 -137 114 -255 101 -473 286 -979 487 -1340 31 -55 55 -101 53
-103 -5 -5 -328 153 -428 209 -125 71 -327 204 -414 273 -136 109 -468 564
-498 685 -51 197 -44 423 17 611 26 81 85 201 142 289 56 87 165 213 177 206
5 -4 19 -25 30 -48z m10324 -94 c158 -213 235 -445 235 -702 -1 -223 -18 -271
-172 -475 -294 -392 -704 -716 -1243 -981 -159 -78 -355 -166 -355 -160 0 2
38 79 84 172 88 176 181 400 236 567 29 88 40 107 99 175 370 421 717 916 986
1404 27 48 52 87 57 87 4 0 37 -39 73 -87z m-8173 -52 c220 -41 464 -79 673
-106 66 -8 134 -18 151 -20 l32 -5 6 -183 c19 -523 65 -1144 101 -1359 4 -25
1 -28 -53 -43 -31 -9 -64 -18 -73 -21 -34 -10 -384 497 -611 886 -172 295
-472 890 -447 890 5 0 105 -18 221 -39z m1088 -156 c259 -25 494 -44 715 -55
116 -6 229 -13 252 -16 41 -5 42 -6 49 -52 20 -146 102 -628 151 -890 30 -166
54 -305 51 -307 -2 -3 -72 -12 -154 -20 -408 -42 -757 -99 -1089 -179 -33 -8
-63 -12 -66 -8 -7 9 -44 354 -64 602 -17 214 -32 495 -41 763 l-6 188 24 -5
c12 -3 93 -12 178 -21z m3179 -212 c-23 -93 -45 -171 -48 -175 -3 -4 -8 76 -9
177 l-4 184 49 3 c32 2 49 -1 51 -9 2 -7 -16 -88 -39 -180z m-86 20 c13 -309
14 -301 -58 -552 -63 -223 -170 -570 -178 -577 -2 -2 -55 1 -118 7 -198 18
-965 23 -1229 8 -129 -7 -239 -14 -245 -14 -13 0 -72 304 -150 775 -36 217
-68 411 -71 430 l-5 35 653 0 c513 0 718 4 958 19 168 10 307 20 309 22 2 2
32 4 66 4 l62 0 6 -157z m-5803 -333 c386 -538 906 -1088 1398 -1478 50 -41
92 -78 92 -83 0 -6 -13 -27 -29 -47 -16 -20 -39 -56 -52 -80 -16 -32 -26 -41
-38 -37 -9 4 -70 22 -136 41 -179 53 -453 147 -604 207 l-134 54 -44 79 c-161
283 -302 619 -404 954 -41 137 -119 443 -119 470 0 17 2 15 70 -80z m5791
-589 c-6 -123 -12 -226 -14 -228 -5 -4 -166 13 -172 19 -2 2 27 100 64 218 37
118 81 261 97 317 l29 102 3 -102 c2 -56 -2 -203 -7 -326z m4114 152 c-210
-328 -582 -786 -837 -1028 -353 -336 -820 -647 -1279 -850 -56 -25 -104 -45
-107 -45 -3 0 33 39 79 87 143 149 260 302 392 513 l82 131 130 55 c266 113
579 283 793 431 268 186 537 438 695 651 60 81 86 108 52 55z m-4625 -373 c96
-6 198 -13 226 -16 l52 -6 -45 -127 c-146 -415 -294 -761 -457 -1066 l-74
-140 -331 1 c-182 0 -333 2 -335 5 -8 7 -89 274 -135 439 -51 188 -90 349
-155 645 -48 216 -52 241 -37 246 16 6 337 26 546 33 130 5 542 -3 745 -14z
m3231 -142 c-76 -202 -117 -297 -211 -483 l-85 -170 -125 -46 c-210 -79 -371
-129 -375 -116 -2 7 -12 39 -22 72 -10 33 -18 63 -18 66 0 3 52 48 115 99 249
201 545 474 691 637 40 45 75 80 77 79 1 -2 -20 -64 -47 -138z m-4567 105 c3
-10 23 -101 45 -203 76 -354 161 -686 250 -974 22 -72 38 -132 36 -135 -9 -9
-715 38 -822 55 -59 9 -415 342 -657 614 -61 69 -116 132 -123 140 -6 9 -19
67 -27 130 -9 63 -19 129 -22 146 l-6 32 129 30 c278 67 621 124 968 161 225
24 223 24 229 4z m1769 2 c60 -6 67 -9 67 -28 0 -32 -28 -412 -40 -552 -21
-249 -78 -694 -89 -707 -6 -6 -218 -21 -504 -33 l-138 -7 36 64 c178 314 351
719 540 1266 3 9 15 12 32 8 16 -2 58 -8 96 -11z m407 -56 c288 -48 469 -92
708 -171 83 -28 152 -55 152 -59 0 -31 -482 -513 -680 -680 -175 -148 -390
-309 -414 -310 -12 0 -60 -4 -108 -7 -103 -8 -96 -20 -74 128 36 238 67 550
91 899 8 124 15 229 15 234 0 12 94 2 310 -34z m-6421 -183 c302 -330 724
-672 1116 -906 62 -37 129 -91 215 -173 150 -143 299 -264 436 -355 147 -97
147 -97 49 -46 -49 26 -160 89 -245 140 -622 370 -1170 839 -1654 1417 -27 31
-47 57 -44 57 2 0 59 -60 127 -134z m86 2 c141 -94 377 -222 547 -298 l146
-65 52 -85 c70 -113 198 -292 271 -379 33 -39 58 -71 55 -71 -9 0 -186 114
-296 190 -225 155 -424 318 -629 513 -128 122 -287 287 -261 271 8 -5 60 -39
115 -76z m2809 5 c11 -58 28 -194 25 -198 -5 -4 -137 159 -145 179 -4 11 56
36 108 45 3 0 9 -11 12 -26z m-60 -149 l98 -126 34 -176 c18 -98 51 -248 72
-334 22 -87 35 -158 31 -158 -26 0 -400 65 -569 99 l-195 38 -130 89 c-72 49
-177 123 -233 164 l-103 75 53 48 c112 102 300 212 508 295 124 50 298 110
320 111 8 1 59 -56 114 -125z m4596 35 c58 -28 148 -79 200 -114 104 -69 246
-208 279 -273 l20 -40 -92 -69 c-51 -38 -143 -105 -206 -148 l-115 -79 -130
-28 c-327 -71 -1053 -181 -1097 -166 -6 2 32 36 85 76 242 182 540 453 767
698 85 91 158 172 162 180 4 8 11 14 15 14 4 0 54 -23 112 -51z m-4247 -441
c108 -116 281 -283 432 -416 48 -42 55 -51 35 -48 -14 3 -72 10 -130 16 -137
14 -404 50 -409 55 -12 13 -131 557 -131 602 0 9 17 -4 42 -33 24 -27 96 -106
161 -176z m-2188 99 c155 -60 351 -126 550 -185 93 -28 129 -43 127 -53 -26
-111 -25 -190 5 -284 22 -69 65 -153 107 -208 20 -26 32 -47 27 -47 -17 0
-253 110 -405 188 -144 74 -152 80 -224 162 -91 104 -188 232 -281 373 -73
109 -80 123 -58 114 6 -3 75 -30 152 -60z m938 -126 c59 -44 146 -105 192
-137 47 -32 83 -59 81 -61 -2 -3 -93 18 -202 46 -278 71 -284 73 -284 81 0 11
93 150 100 150 3 0 53 -36 113 -79z m6030 -38 c30 -96 31 -91 -31 -109 -97
-29 -307 -82 -310 -79 -1 1 48 38 110 82 62 45 133 97 158 116 25 20 48 36 52
36 3 1 13 -20 21 -46z m464 -50 c-182 -294 -478 -636 -584 -676 -24 -8 -43
-14 -43 -12 0 3 25 43 56 90 105 161 152 290 163 448 l6 88 160 54 c88 29 189
65 225 78 36 14 66 24 68 22 2 -2 -21 -43 -51 -92z m-6554 -63 c84 -22 212
-53 286 -70 127 -29 141 -34 255 -104 227 -137 380 -218 634 -336 l144 -66 43
-111 c24 -61 55 -134 70 -163 14 -28 25 -53 23 -55 -5 -5 -241 32 -388 60
-311 61 -649 156 -940 267 -116 44 -141 65 -215 178 -86 132 -119 267 -95 383
6 31 16 57 21 57 6 0 79 -18 162 -40z m6114 -97 c-9 -149 -74 -313 -186 -469
-63 -89 -60 -87 -301 -160 -311 -95 -642 -162 -990 -199 -154 -17 -657 -42
-665 -33 -3 3 2 27 12 54 l18 48 135 37 c471 129 943 336 1391 609 121 74 131
78 290 119 90 23 191 50 224 60 33 11 64 20 69 20 5 1 6 -38 3 -86z m893 3 c0
-7 -278 -215 -400 -298 -169 -115 -289 -191 -456 -286 -132 -75 -476 -252
-491 -252 -15 0 57 65 137 123 47 33 121 91 165 128 60 49 106 77 180 109 243
103 581 287 780 424 82 57 85 59 85 52z m-6315 -61 c77 -15 225 -41 329 -59
l189 -31 46 -143 c26 -78 43 -142 40 -142 -25 0 -452 212 -594 295 -55 32
-119 69 -142 83 -45 25 -55 37 -25 28 9 -2 80 -17 157 -31z m4860 -4 c-27 -27
-297 -176 -500 -276 -238 -118 -385 -179 -615 -259 -119 -42 -401 -126 -420
-126 -4 0 3 44 16 98 12 53 28 122 34 153 l11 56 134 87 134 87 173 19 c359
40 737 101 1038 169 2 1 0 -3 -5 -8z m-4080 -121 c88 -10 207 -24 265 -31
l105 -11 130 -98 c254 -191 518 -349 760 -456 72 -31 132 -59 135 -62 7 -6
-110 5 -240 24 -364 52 -830 178 -1175 318 l-110 44 -47 144 c-26 78 -47 147
-47 151 -1 4 14 5 32 2 17 -3 104 -14 192 -25z m-1614 -219 c121 -54 141 -67
214 -136 94 -90 257 -215 405 -310 135 -87 139 -91 57 -60 -291 109 -591 279
-823 467 -97 78 -254 219 -254 229 0 3 60 -25 133 -62 74 -38 194 -95 268
-128z m2244 155 c88 -8 259 -20 380 -26 121 -7 225 -13 230 -15 6 -1 21 -34
34 -71 38 -111 110 -282 158 -378 24 -48 42 -90 40 -92 -13 -14 -342 138 -511
235 -158 91 -445 286 -520 353 -13 11 1 10 189 -6z m2170 -5 c-19 -17 -179
-120 -182 -117 -5 4 14 96 21 103 4 4 39 10 79 13 39 4 76 8 82 9 6 0 6 -2 0
-8z m-200 -33 c-3 -13 -9 -43 -13 -67 -7 -42 -11 -47 -82 -89 -289 -173 -736
-363 -888 -378 l-67 -7 61 65 c77 83 192 235 274 365 l64 101 111 6 c597 31
546 30 540 4z m-883 -8 l198 0 -51 -82 c-73 -117 -212 -301 -289 -382 l-66
-69 -56 114 c-61 123 -80 168 -139 328 l-38 104 121 -6 c67 -4 210 -7 320 -7z
m823 -291 c-18 -78 -38 -144 -44 -149 -17 -10 -313 -66 -442 -84 -76 -10 -128
-12 -184 -5 -43 4 -79 10 -81 12 -2 2 27 14 64 27 154 54 449 192 627 294 44
25 83 46 86 46 4 0 -8 -63 -26 -141z m-3760 26 c300 -106 634 -191 965 -245
102 -17 203 -34 225 -38 36 -6 43 -14 83 -81 24 -41 59 -95 78 -120 l36 -46
-74 -3 c-163 -7 -490 32 -708 84 -117 28 -188 66 -425 224 -172 115 -402 302
-350 285 11 -3 88 -30 170 -60z m1440 -62 c296 -100 667 -192 886 -220 l64 -8
-65 -6 c-172 -17 -592 -8 -920 21 -172 15 -162 12 -189 72 -34 77 -111 260
-111 263 0 2 46 -15 103 -37 56 -22 161 -60 232 -85z m4250 59 c-6 -5 -32 -26
-60 -48 -41 -32 -47 -34 -34 -14 17 26 75 70 92 70 7 0 7 -3 2 -8z m-176 -109
c-189 -201 -644 -388 -1089 -449 -204 -28 -640 -21 -777 12 l-21 6 22 51 c13
29 31 75 40 103 l17 51 76 7 c42 3 126 6 188 6 443 0 1089 111 1530 263 39 13
72 22 74 20 2 -1 -24 -33 -60 -70z m-1813 -143 l-13 -45 -139 4 c-77 2 -157 7
-179 11 l-40 8 35 2 c19 1 105 16 190 33 85 18 156 32 157 32 1 -1 -4 -21 -11
-45z m-716 -36 c0 -2 -24 -3 -52 -3 -48 2 -49 2 -18 8 33 6 70 3 70 -5z
m-1518 -21 c193 -18 750 -24 1021 -10 86 4 157 4 157 0 0 -9 -261 -81 -425
-117 -209 -46 -459 -80 -671 -92 l-120 -7 -31 40 c-59 74 -134 203 -119 203 8
0 93 -7 188 -17z m2050 -12 c80 -3 149 -8 152 -11 7 -7 -17 -80 -50 -151 l-26
-56 -112 23 c-194 39 -373 89 -561 157 l-90 32 130 12 c122 11 189 10 557 -6z
m-764 -42 c90 -164 262 -382 340 -431 36 -22 36 -22 12 -29 -65 -18 -852 -5
-1009 17 l-44 6 65 22 c155 55 309 161 487 335 62 61 117 111 122 111 6 0 18
-14 27 -31z m232 -48 c175 -59 339 -104 500 -136 47 -10 87 -19 89 -21 6 -6
-59 -117 -95 -161 -52 -64 -86 -80 -187 -87 -79 -6 -93 -5 -135 15 -90 44
-209 180 -332 378 -38 62 -47 82 -33 78 10 -3 97 -33 193 -66z m-430 -32
c-270 -256 -503 -366 -716 -339 -122 16 -226 68 -334 167 l-55 51 90 6 c388
28 747 91 1025 180 78 25 77 17 -10 -65z m2625 71 c-3 -5 -12 -10 -18 -10 -7
0 -6 4 3 10 19 12 23 12 15 0z m-4697 -76 c17 -7 32 -15 32 -18 0 -6 -102 32
-110 41 -6 7 35 -5 78 -23z m243 -53 c191 -37 416 -61 588 -61 l93 0 72 -66
c39 -37 95 -80 124 -96 29 -17 52 -32 50 -33 -5 -5 -285 44 -407 71 -239 54
-614 174 -646 207 -7 7 -5 8 6 4 8 -3 62 -14 120 -26z m4059 -20 c-22 -12
-374 -115 -515 -150 -189 -47 -415 -88 -606 -110 -232 -27 -218 -29 -172 23
32 37 106 151 115 178 2 5 64 1 138 -8 177 -22 512 -22 671 -1 115 16 276 48
334 66 38 12 54 13 35 2z"/>
</g>
</svg>
