<svg width="240" height="120" viewBox="0 0 240 120" fill="none" xmlns="http://www.w3.org/2000/svg">
<path d="M119.5 60C119.5 81.92 107.647 101.072 90 111.395C72.3534 101.072 60.5 81.92 60.5 60C60.5 38.08 72.3534 18.9284 90 8.60547C107.647 18.9284 119.5 38.08 119.5 60ZM60 0.5C70.5299 0.5 80.4209 3.23531 89.0013 8.03414C71.3315 18.5973 59.5 37.9169 59.5 60C59.5 82.0831 71.3315 101.403 89.0013 111.966C80.4209 116.765 70.5299 119.5 60 119.5C27.1391 119.5 0.5 92.8609 0.5 60C0.5 27.1391 27.1391 0.5 60 0.5ZM120 52.1858C117.579 33.4097 106.55 17.3307 90.9987 8.03414C99.5791 3.23531 109.47 0.5 120 0.5C130.53 0.5 140.421 3.23531 149.001 8.03414C133.45 17.3307 122.421 33.4097 120 52.1858ZM120.5 60C120.5 38.08 132.353 18.9284 150 8.60547C167.647 18.9284 179.5 38.08 179.5 60C179.5 81.92 167.647 101.072 150 111.395C132.353 101.072 120.5 81.92 120.5 60ZM150.999 111.966C168.669 101.403 180.5 82.0831 180.5 60C180.5 37.9169 168.669 18.5973 150.999 8.03414C159.579 3.23531 169.47 0.5 180 0.5C212.861 0.5 239.5 27.1391 239.5 60C239.5 92.8609 212.861 119.5 180 119.5C169.47 119.5 159.579 116.765 150.999 111.966ZM149.001 111.966C140.421 116.765 130.53 119.5 120 119.5C109.47 119.5 99.5791 116.765 90.9987 111.966C106.55 102.669 117.579 86.5903 120 67.8142C122.421 86.5903 133.45 102.669 149.001 111.966Z" stroke="black"/>
</svg>
